<?xml version="1.0" encoding="UTF-8" standalone="no"?>
<!-- Created with Inkscape (http://www.inkscape.org/) -->

<svg
   xmlns:dc="http://purl.org/dc/elements/1.1/"
   xmlns:cc="http://creativecommons.org/ns#"
   xmlns:rdf="http://www.w3.org/1999/02/22-rdf-syntax-ns#"
   xmlns:svg="http://www.w3.org/2000/svg"
   xmlns="http://www.w3.org/2000/svg"
   xmlns:sodipodi="http://sodipodi.sourceforge.net/DTD/sodipodi-0.dtd"
   xmlns:inkscape="http://www.inkscape.org/namespaces/inkscape"
   width="512"
   height="512"
   viewBox="0 0 135.46666 135.46667"
   version="1.1"
   id="svg8"
   inkscape:version="0.92.4 (5da689c313, 2019-01-14)"
   sodipodi:docname="icon.svg"
   inkscape:export-filename="E:\WS\dotnet\KeyVault\icon.png"
   inkscape:export-xdpi="95.996078"
   inkscape:export-ydpi="95.996078">
  <title
     id="title843">KeyVault</title>
  <defs
     id="defs2" />
  <sodipodi:namedview
     id="base"
     pagecolor="#ffffff"
     bordercolor="#666666"
     borderopacity="1.0"
     inkscape:pageopacity="0.0"
     inkscape:pageshadow="2"
     inkscape:zoom="0.5"
     inkscape:cx="-73.01617"
     inkscape:cy="367.52169"
     inkscape:document-units="px"
     inkscape:current-layer="layer1"
     showgrid="false"
     units="px"
     showguides="true"
     inkscape:window-width="1538"
     inkscape:window-height="877"
     inkscape:window-x="54"
     inkscape:window-y="-8"
     inkscape:window-maximized="1" />
  <metadata
     id="metadata5">
    <rdf:RDF>
      <cc:Work
         rdf:about="">
        <dc:format>image/svg+xml</dc:format>
        <dc:type
           rdf:resource="http://purl.org/dc/dcmitype/StillImage" />
        <dc:title>KeyVault</dc:title>
      </cc:Work>
    </rdf:RDF>
  </metadata>
  <g
     inkscape:label="Layer 1"
     inkscape:groupmode="layer"
     id="layer1"
     transform="translate(0,-161.53332)">
    <rect
       style="fill:#000000;fill-opacity:1;stroke:none;stroke-width:1.43199944;stroke-miterlimit:4;stroke-dasharray:none;stroke-opacity:1"
       id="rect815"
       width="135.46666"
       height="131.23334"
       x="0"
       y="162.05698"
       ry="20.660891" />
    <rect
       y="292.76666"
       x="31.749998"
       height="4.2333331"
       width="16.933332"
       id="rect839"
       style="fill:#000000;fill-opacity:1;stroke:none;stroke-width:1.23762631;stroke-miterlimit:4;stroke-dasharray:none;stroke-opacity:1" />
    <rect
       style="fill:#000000;fill-opacity:1;stroke:none;stroke-width:1.23762631;stroke-miterlimit:4;stroke-dasharray:none;stroke-opacity:1"
       id="rect856"
       width="16.933332"
       height="4.2333331"
       x="89.958328"
       y="292.76666" />
    <path
       style="fill:#ffffff;fill-opacity:1;stroke:none;stroke-width:9.26470566;stroke-miterlimit:4;stroke-dasharray:none;stroke-opacity:1"
       d="M 131.58789 68 C 100.79199 68 76 92.79199 76 123.58789 L 76 372.41211 C 76 403.20801 100.79199 428 131.58789 428 L 380.41211 428 C 411.20801 428 436 403.20801 436 372.41211 L 436 335.66406 C 437.30094 335.88069 438.63572 336 440 336 L 456 336 C 469.296 336 480 325.296 480 312 C 480 298.704 469.296 288 456 288 L 440 288 C 438.63572 288 437.30094 288.11931 436 288.33594 L 436 215.66406 C 437.30094 215.88069 438.63572 216 440 216 L 456 216 C 469.296 216 480 205.296 480 192 C 480 178.704 469.296 168 456 168 L 440 168 C 438.63572 168 437.30094 168.11931 436 168.33594 L 436 123.58789 C 436 92.79199 411.20801 68 380.41211 68 L 131.58789 68 z "
       transform="matrix(0.26458333,0,0,0.26458333,0,161.53332)"
       id="rect827" />
    <path
       style="fill:#000000;fill-opacity:1;stroke:none;stroke-width:9.67525005;stroke-miterlimit:4;stroke-dasharray:none;stroke-opacity:1"
       d="M 292.50977 96.923828 A 124.39608 124.39608 0 0 0 202.73242 133.3457 A 124.39608 124.39608 0 0 0 176.79297 271.30273 L 160.41797 287.67773 L 179.61328 331.82031 L 147.86133 300.23438 L 132.96875 315.12695 L 149.91602 354.09375 L 121.88477 326.21094 L 110.18555 337.91211 C 92.484134 355.61349 92.484134 384.11304 110.18555 401.81445 C 127.88696 419.51587 156.38648 419.51587 174.08789 401.81445 L 240.78711 335.11719 A 124.39608 124.39608 0 0 0 378.6543 309.26758 A 124.39608 124.39608 0 0 0 378.6543 133.3457 A 124.39608 124.39608 0 0 0 292.50977 96.923828 z M 314.61133 150.31836 A 47.772001 47.772001 0 0 1 347.69336 164.30664 A 47.772001 47.772001 0 0 1 347.69336 231.86523 A 47.772001 47.772001 0 0 1 280.13477 231.86523 A 47.772001 47.772001 0 0 1 280.13477 164.30664 A 47.772001 47.772001 0 0 1 314.61133 150.31836 z "
       transform="matrix(0.26458333,0,0,0.26458333,0,161.53332)"
       id="path817" />
  </g>
</svg>
